<svg xmlns="http://www.w3.org/2000/svg" viewBox="0 0 1200 680" role="img">
<title>TheFAYTH File Type workflow overview</title>
<defs><marker id="arrow" markerWidth="10" markerHeight="10" refX="6" refY="3" orient="auto"><path d="M0,0 L0,6 L7,3 z" fill="#7B2638"/></marker></defs>
<rect width="1200" height="680" fill="#FFFDF8"/>
<text x="70" y="74" font-family="Segoe UI, Arial, sans-serif" font-size="34" font-weight="700" fill="#241F21">TheFAYTH File Type workflow overview</text>
<path d="M 190 195 L 290 195" stroke="#7B2638" stroke-width="4" fill="none" marker-end="url(#arrow)"/>
<path d="M 430 195 L 530 195" stroke="#7B2638" stroke-width="4" fill="none" marker-end="url(#arrow)"/>
<path d="M 670 195 L 770 195" stroke="#7B2638" stroke-width="4" fill="none" marker-end="url(#arrow)"/>
<path d="M 910 195 L 290 405" stroke="#7B2638" stroke-width="4" fill="none" marker-end="url(#arrow)"/>
<path d="M 430 405 L 530 405" stroke="#7B2638" stroke-width="4" fill="none" marker-end="url(#arrow)"/>
<path d="M 670 405 L 770 405" stroke="#7B2638" stroke-width="4" fill="none" marker-end="url(#arrow)"/>
<rect x="70" y="150" width="220" height="92" rx="14" fill="#FFFFFF" stroke="#DACBBC" stroke-width="3"/>
<text x="90" y="186" font-family="Segoe UI, Arial, sans-serif" font-size="21" font-weight="700" fill="#241F21">Source File</text>
<text x="90" y="216" font-family="Segoe UI, Arial, sans-serif" font-size="15" fill="#766A66">original bytes</text>
<rect x="310" y="150" width="220" height="92" rx="14" fill="#F7F0E6" stroke="#DACBBC" stroke-width="3"/>
<text x="330" y="186" font-family="Segoe UI, Arial, sans-serif" font-size="21" font-weight="700" fill="#241F21">Seal</text>
<text x="330" y="216" font-family="Segoe UI, Arial, sans-serif" font-size="15" fill="#766A66">encrypted package</text>
<rect x="550" y="150" width="220" height="92" rx="14" fill="#FFFFFF" stroke="#DACBBC" stroke-width="3"/>
<text x="570" y="186" font-family="Segoe UI, Arial, sans-serif" font-size="21" font-weight="700" fill="#241F21">Verify</text>
<text x="570" y="216" font-family="Segoe UI, Arial, sans-serif" font-size="15" fill="#766A66">hash + signature</text>
<rect x="790" y="150" width="220" height="92" rx="14" fill="#F7F0E6" stroke="#DACBBC" stroke-width="3"/>
<text x="810" y="186" font-family="Segoe UI, Arial, sans-serif" font-size="21" font-weight="700" fill="#241F21">Reveal</text>
<text x="810" y="216" font-family="Segoe UI, Arial, sans-serif" font-size="15" fill="#766A66">safe fields</text>
<rect x="310" y="360" width="220" height="92" rx="14" fill="#FFFFFF" stroke="#DACBBC" stroke-width="3"/>
<text x="330" y="396" font-family="Segoe UI, Arial, sans-serif" font-size="21" font-weight="700" fill="#241F21">Disclosure</text>
<text x="330" y="426" font-family="Segoe UI, Arial, sans-serif" font-size="15" fill="#766A66">export package</text>
<rect x="550" y="360" width="220" height="92" rx="14" fill="#F7F0E6" stroke="#DACBBC" stroke-width="3"/>
<text x="570" y="396" font-family="Segoe UI, Arial, sans-serif" font-size="21" font-weight="700" fill="#241F21">Unveil</text>
<text x="570" y="426" font-family="Segoe UI, Arial, sans-serif" font-size="15" fill="#766A66">password-gated</text>
<rect x="790" y="360" width="220" height="92" rx="14" fill="#FFFFFF" stroke="#DACBBC" stroke-width="3"/>
<text x="810" y="396" font-family="Segoe UI, Arial, sans-serif" font-size="21" font-weight="700" fill="#241F21">Receipt</text>
<text x="810" y="426" font-family="Segoe UI, Arial, sans-serif" font-size="15" fill="#766A66">local proof</text>
</svg>
