<svg xmlns="http://www.w3.org/2000/svg" viewBox="0 0 1200 630">
  <defs>
    <linearGradient id="bg" x1="0" x2="1" y1="0" y2="1">
      <stop offset="0%" stop-color="#FFFDF8"/>
      <stop offset="100%" stop-color="#F7F0E6"/>
    </linearGradient>
  </defs>
  <rect width="1200" height="630" fill="url(#bg)"/>
  <rect x="64" y="64" width="1072" height="502" rx="34" fill="#FFFDF8" stroke="#DACBBC" stroke-width="3"/>
  <text x="110" y="150" font-family="Georgia, serif" font-size="78" font-weight="700" fill="#241F21">FAYTH Unveil</text>
  <text x="112" y="202" font-family="Aptos, Segoe UI, sans-serif" font-size="24" font-weight="700" fill="#7B2638">Magic Unveil brand board</text>
  <text x="112" y="264" font-family="Aptos, Segoe UI, sans-serif" font-size="31" fill="#766A66">Proof, privacy, signatures, local receipts, and selective reveal.</text>
  <g transform="translate(820 122)">
    <rect x="0" y="0" width="190" height="258" rx="12" fill="#F7F0E6" stroke="#B68B4A" stroke-width="4"/>
    <path d="M126 0v62h64" fill="none" stroke="#DACBBC" stroke-width="4"/>
    <text x="95" y="102" text-anchor="middle" font-family="Georgia, serif" font-size="34" font-weight="700" fill="#241F21">FAYTH</text>
    <circle cx="95" cy="164" r="36" fill="#FFFDF8" stroke="#B68B4A" stroke-width="3"/>
    <path d="M80 160v-15c0-17 12-29 29-29s29 12 29 29v15" fill="none" stroke="#7B2638" stroke-width="7" stroke-linecap="round"/>
    <rect x="74" y="156" width="42" height="35" rx="8" fill="none" stroke="#7B2638" stroke-width="7"/>
  </g>
  <g transform="translate(112 396)">
    <circle cx="24" cy="24" r="24" fill="#F7F0E6"/>
    <circle cx="94" cy="24" r="24" fill="#7B2638"/>
    <circle cx="164" cy="24" r="24" fill="#B68B4A"/>
    <circle cx="234" cy="24" r="24" fill="#F3DFA2"/>
    <circle cx="304" cy="24" r="24" fill="#2F7A5F"/>
  </g>
</svg>
